# xmcd CD database file
#
# Track frame offsets:
#	150
#	15715
#	30567
#	52908
#	65909
#	85685
#	101755
#	123655
#	146406
#	169747
#	184073
#	201138
#	214832
#	235577
#
# Disc length: 3345 seconds
#
# Revision: 1
# Processed by: cddbd v1.5.2PL0 Copyright (c) Steve Scherf et al.
# Submitted via: CDex 1.70beta2
#
DISCID=c00d0f0e
DTITLE=Tal Farlow - The Ultimate Jazz Archive Set 31
DYEAR=2005
DGENRE=Jazz
TTITLE0=Strike Up The Band
TTITLE1=Skylark
TTITLE2=Have You Met Miss Jones?
TTITLE3=Tenderly
TTITLE4=And She Remembers Me
TTITLE5=My Old Flame
TTITLE6=Cherokee
TTITLE7=Autumn In New York
TTITLE8=Tal's Blues
TTITLE9=I Like To Recognize The Tune
TTITLE10=There Will Never Be Another You
TTITLE11=Just One Of Those Things
TTITLE12=Tenderly (2)
TTITLE13=It's You Or No One
EXTD=YEAR: 2005
EXTT0=
EXTT1=
EXTT2=
EXTT3=
EXTT4=
EXTT5=
EXTT6=
EXTT7=
EXTT8=
EXTT9=
EXTT10=
EXTT11=
EXTT12=
EXTT13=
PLAYORDER=
